<svg version="1.1" id="Layer_1" xmlns="http://www.w3.org/2000/svg" xmlns:xlink="http://www.w3.org/1999/xlink" x="0px" y="0px" viewBox="0 0 500 500" style="width: 137px;" xml:space="preserve" data-imageid="consulting-9" imageName="Consulting" class="illustrations_image">
<style type="text/css">
	.st0_consulting-9{fill:#725858;}
	.st1_consulting-9{fill:#093F68;}
	.st2_consulting-9{fill:#FFBC0E;}
	.st3_consulting-9{fill:#FFFFFF;}
	.st4_consulting-9{fill:#FFC9B0;}
	.st5_consulting-9{fill:#68E1FD;}
	.st6_consulting-9{fill:#F56132;}
	.st7_consulting-9{fill:none;}
	.st8_consulting-9{fill:#DFEAEF;}
</style>
<g id="character-2_consulting-9">
	<path class="st0_consulting-9" d="M370,107.3c-4.4-2.3-9.1-3.8-13.9-4.5c-13.3-1.7-26.6,2.9-36.1,12.3c-10.9,11-16.2,29.4-18.2,44.4&#10;&#9;&#9;c-2.6,20.1-4.1,40.3-4.6,60.5c0.1,2,0.5,4.1,1.2,6c0,0,24.7,23.3,78.3,16.7c16.8-2.1,33.8-2.8,50.6-4.8c-2.1-14.1-1-28.4-2.9-42.3&#10;&#9;&#9;c-1.6-11.7-3.5-23.3-4.6-35.2c-1.1-11.7-2-27.7-13.3-34.5c-5.7-3.4-12.7-3.9-18.8-1.5C383.6,117.1,377.4,111.1,370,107.3z"/>
	<path class="st1_consulting-9" d="M357.8,245.6c-40.7,0-59.8-17.5-60.7-18.4c-0.2-0.2-0.4-0.5-0.5-0.8c-0.7-2.1-1.1-4.3-1.3-6.6&#10;&#9;&#9;c0.5-20.3,2-40.5,4.6-60.6c1.5-11.4,6-32.5,18.8-45.4c9.9-9.8,23.8-14.6,37.6-12.9c5.1,0.7,10,2.3,14.5,4.7l0,0&#10;&#9;&#9;c7.2,3.8,13.3,9.4,17.6,16.3c6.3-2,13.2-1.2,19,2.2c11.5,7,13,22.7,14,34.2l0.1,1.7c0.8,8.7,2.1,17.4,3.3,25.9&#10;&#9;&#9;c0.4,3.1,0.9,6.2,1.3,9.3c0.8,6.9,1.3,13.8,1.4,20.7c0.1,7.2,0.6,14.4,1.5,21.6c0.1,1-0.6,1.9-1.6,2.1c0,0,0,0,0,0&#10;&#9;&#9;c-8.2,1-16.5,1.6-24.6,2.3c-8.5,0.7-17.4,1.4-26,2.5C370.6,245.2,364.2,245.6,357.8,245.6z M300,224.9c3.1,2.7,27.8,21.9,76.5,15.9&#10;&#9;&#9;c8.7-1.1,17.6-1.8,26.2-2.5c7.4-0.6,15.1-1.2,22.6-2.1c-0.9-6.7-1.1-13.5-1.3-20.1c-0.1-6.8-0.6-13.6-1.4-20.3&#10;&#9;&#9;c-0.4-3.1-0.9-6.2-1.3-9.3c-1.2-8.5-2.5-17.2-3.3-26l-0.1-1.7c-1-11.3-2.3-25.4-12.2-31.4c-5.2-3.1-11.6-3.6-17.2-1.3&#10;&#9;&#9;c-0.8,0.3-1.8,0-2.3-0.8c-4-6.9-9.8-12.5-16.9-16.2c-4.2-2.2-8.7-3.6-13.3-4.3c-12.7-1.6-25.5,2.8-34.6,11.8&#10;&#9;&#9;c-12,12.1-16.2,32.4-17.7,43.3c-2.6,20-4.1,40.1-4.6,60.2C299.1,221.7,299.5,223.3,300,224.9z"/>
	<path class="st2_consulting-9" d="M333.2,236.4h42.6c14.8,0,26.8,12,26.8,26.8l0,0v49.4l0,0h-96.2l0,0v-49.4&#10;&#9;&#9;C306.4,248.3,318.4,236.4,333.2,236.4L333.2,236.4z"/>
	<path class="st1_consulting-9" d="M402.6,314.4h-96.2c-1,0-1.8-0.8-1.8-1.8v-48c0-16.6,13.4-30,30-30l0,0h39.8c16.6,0,30,13.4,30,30l0,0v48&#10;&#9;&#9;C404.4,313.6,403.6,314.4,402.6,314.4z M308.2,310.7h92.5v-46.2c0-14.6-11.8-26.4-26.4-26.4h-39.8c-14.6,0-26.4,11.8-26.4,26.4&#10;&#9;&#9;V310.7z"/>
	<polygon class="st3_consulting-9" points="361.6,239 349.1,291.5 345.6,240.1 &#9;"/>
	<path class="st1_consulting-9" d="M349.1,293.3H349c-0.9-0.1-1.6-0.8-1.7-1.7l-3.5-51.4c-0.1-1,0.7-1.9,1.7-1.9l16-1.1c1-0.1,1.9,0.7,1.9,1.7&#10;&#9;&#9;c0,0.2,0,0.4,0,0.6l-12.5,52.5C350.7,292.7,350,293.3,349.1,293.3z M347.5,241.8l2.6,37.6l9.1-38.4L347.5,241.8z"/>
	<path class="st4_consulting-9" d="M356.9,247.1l-8-0.4c-2-0.1-3.5-1.8-3.4-3.7l0,0l0.6-11.6l0,0l15.1,0.8l0,0l-0.6,11.6&#10;&#9;&#9;C360.5,245.7,358.8,247.2,356.9,247.1L356.9,247.1L356.9,247.1z"/>
	<path class="st1_consulting-9" d="M354.3,248.8h-0.4l-2.3-0.1l0,0c-4.6-0.2-8-4.1-7.8-8.7c0,0,0,0,0,0l0.5-8.7c0-0.5,0.2-0.9,0.6-1.2&#10;&#9;&#9;c0.4-0.3,0.8-0.5,1.3-0.5l15.1,0.8c1,0,1.8,0.9,1.7,1.9c0,0,0,0,0,0l-0.4,8.7C362.3,245.3,358.7,248.8,354.3,248.8L354.3,248.8z&#10;&#9;&#9; M351.8,245l2.3,0.1c1.2,0.1,2.4-0.3,3.3-1.1c0.9-0.8,1.5-2,1.5-3.2l0.4-6.9l-11.5-0.6l-0.4,6.9C347.3,242.7,349.3,244.9,351.8,245&#10;&#9;&#9;z"/>
	
		<ellipse transform="matrix(5.146442e-02 -0.9987 0.9987 5.146442e-02 108.3048 498.2201)" class="st4_consulting-9" cx="316.4" cy="192.1" rx="12.7" ry="11.3"/>
	<path class="st1_consulting-9" d="M316.3,206.6h-0.6c-3.6-0.2-6.9-2-9.1-4.8c-4.7-6.1-4.3-14.7,1-20.3c4.7-4.9,12.5-5.1,17.4-0.4&#10;&#9;&#9;c0.5,0.4,0.9,0.9,1.3,1.4c4.8,6.1,4.3,14.7-1,20.3C322.9,205.2,319.7,206.6,316.3,206.6z M316.6,181.2c-2.4,0-4.7,1-6.4,2.8&#10;&#9;&#9;c-2,2-3.1,4.7-3.2,7.6l0,0c-0.2,2.8,0.7,5.7,2.5,7.9c1.6,2,3.9,3.3,6.5,3.4c2.6,0.1,5.1-0.9,6.8-2.8c4-4.3,4.4-10.8,0.8-15.5&#10;&#9;&#9;c-1.6-2-3.9-3.3-6.5-3.4L316.6,181.2z M305.1,191.5L305.1,191.5z"/>
	<path class="st4_consulting-9" d="M353.9,235.4c24.9,1.3,48.7-28.2,49.9-52.7l-6,1.9l1.1-17.3c0,0-30.8-9.8-26-24.1c0,0-9.7,10.4-22.8,9.7&#10;&#9;&#9;c-24.1-1.3-33.2-8.2-33.2-8.2l-2.2,44.3C313.5,213.4,329,234.1,353.9,235.4z"/>
	<path class="st1_consulting-9" d="M355.4,237.2c-0.5,0-1.1,0-1.6,0c-11.9-0.5-23.1-6-30.7-15.2c-7.2-8.9-10.9-20.6-10.2-33.1l2.3-44.2&#10;&#9;&#9;c0.1-1,0.9-1.8,1.9-1.7c0.4,0,0.7,0.1,1,0.4c0.1,0.1,9.1,6.6,32.2,7.8c12.1,0.6,21.3-9,21.4-9.1c0.7-0.7,1.9-0.7,2.6,0.1&#10;&#9;&#9;c0.4,0.5,0.6,1.1,0.4,1.8c-0.7,2-0.5,4.3,0.5,6.2c4.7,9.2,24,15.5,24.2,15.6c0.8,0.3,1.3,1,1.3,1.9l-0.9,14.6l3.5-1.1&#10;&#9;&#9;c0.6-0.2,1.2-0.1,1.7,0.3c0.5,0.4,0.7,0.9,0.7,1.5c-0.6,12.4-6.8,26.2-16.6,37.1C379.1,231,367,237.2,355.4,237.2z M318.6,147.8&#10;&#9;&#9;l-2.1,41.2c-0.6,11.6,2.7,22.5,9.4,30.7c6.9,8.4,17.2,13.5,28.1,13.9l0,0c10.9,0.6,22.7-5.3,32.4-16.1c8.5-9.5,14.2-21.3,15.4-32.2&#10;&#9;&#9;l-3.4,1.1c-1,0.3-2-0.2-2.3-1.2c-0.1-0.2-0.1-0.4-0.1-0.7l1-15.9c-4.8-1.7-20.4-7.8-25-16.9c-0.6-1.3-1.1-2.6-1.2-4&#10;&#9;&#9;c-4.1,3.2-11.6,7.6-20.7,7.1C332.8,153.8,323,150,318.6,147.8z"/>
	
		<ellipse transform="matrix(5.146442e-02 -0.9987 0.9987 5.146442e-02 162.8735 543.7344)" class="st1_consulting-9" cx="367.7" cy="186.1" rx="4.1" ry="4.1"/>
	<circle class="st1_consulting-9" cx="328.2" cy="184.1" r="4.1"/>
	<path class="st1_consulting-9" d="M346.5,196.8c-1.6,0-3.1-0.2-4.7-0.6c-0.8-0.2-1.5-0.9-1.8-1.6c-1.1-2.8,2.1-8.9,4.1-12.4&#10;&#9;&#9;c0.6-0.8,1.7-1.1,2.5-0.5c0.8,0.5,1,1.5,0.6,2.4c-2,3.5-3.7,7.3-3.9,8.8c1.8,0.3,3.6,0.4,5.5,0.1c1-0.1,1.9,0.6,2,1.6&#10;&#9;&#9;c0.1,1-0.6,1.8-1.5,2C348.4,196.8,347.4,196.8,346.5,196.8z M343.5,193.3L343.5,193.3z"/>
	<path class="st1_consulting-9" d="M383.7,178.1h-0.3l-19.5-1.7c-2-0.2-3.5-1.9-3.3-3.9c0.2-2,1.9-3.5,3.9-3.3l19.5,1.6c2,0.2,3.5,2,3.2,4&#10;&#9;&#9;C387.1,176.7,385.5,178.1,383.7,178.1L383.7,178.1z"/>
	<path class="st1_consulting-9" d="M344.3,174.1h-0.4l-19.5-2.1c-2-0.3-3.3-2.2-3-4.2c0.3-1.9,1.9-3.2,3.8-3.1l19.5,2.1c2,0.3,3.4,2.1,3.1,4.1&#10;&#9;&#9;C347.6,172.7,346.1,174.1,344.3,174.1L344.3,174.1z"/>
	<path class="st4_consulting-9" d="M394.8,185.3c0,0,11.2-6.9,16.5,3s-1.1,26.1-18.8,20.4"/>
	<path class="st1_consulting-9" d="M399.4,211.7c-2.5,0-5-0.5-7.4-1.3c-1-0.3-1.5-1.3-1.2-2.3c0.3-1,1.3-1.5,2.3-1.2c6.6,2.1,12,1.1,15.3-2.8&#10;&#9;&#9;c3.3-4.3,3.8-10.2,1.3-15c-0.9-2-2.7-3.5-4.8-4.1c-4.3-1.2-9.2,1.8-9.2,1.8c-0.9,0.5-2,0.3-2.5-0.6s-0.3-2,0.6-2.5&#10;&#9;&#9;c0.2-0.1,6.2-3.8,12-2.2c3.1,0.9,5.6,3,7,5.9c3.3,6.1,2.6,13.6-1.7,19C408.3,209.9,403.9,211.8,399.4,211.7z"/>
	<path class="st1_consulting-9" d="M350.3,216.1c-8.1,0-14.5-4.9-14.8-5.1c-0.8-0.7-0.8-1.8-0.2-2.6c0.6-0.7,1.6-0.8,2.4-0.3&#10;&#9;&#9;c0.1,0.1,7.4,5.5,15.4,4.1c4.7-0.9,8.8-4,12.1-9.3c0.5-0.9,1.6-1.2,2.5-0.7c0.9,0.5,1.2,1.6,0.7,2.5c0,0.1-0.1,0.1-0.1,0.2&#10;&#9;&#9;c-3.9,6.2-8.8,9.9-14.6,10.9C352.5,216,351.4,216.1,350.3,216.1z"/>
	<path class="st1_consulting-9" d="M327.3,314.4c-0.9,0-1.7-0.7-1.8-1.6l-2.3-19.4c-0.7-1.4-3.4-7.5-4-12.8c-0.8-6.4,1.7-12.8,6.7-16.9&#10;&#9;&#9;c0.8-0.6,1.9-0.6,2.6,0.2c0.6,0.8,0.6,1.9-0.2,2.6c-0.1,0.1-0.1,0.1-0.2,0.1c-3.9,3.3-5.9,8.4-5.2,13.5c0.6,5.3,3.8,11.8,3.8,11.9&#10;&#9;&#9;c0.1,0.2,0.1,0.4,0.2,0.6l2.3,19.7c0.1,1-0.6,1.9-1.6,2L327.3,314.4z"/>
	<path class="st1_consulting-9" d="M380.7,314.4c-1,0-1.8-0.8-1.8-1.8c0,0,0,0,0,0v-47.3c0.1-1,0.9-1.8,1.9-1.7c0.9,0.1,1.6,0.8,1.7,1.7v47.3&#10;&#9;&#9;C382.5,313.6,381.7,314.4,380.7,314.4z"/>
</g>
<g id="table_consulting-9">
	<polygon class="st5_consulting-9 targetColor" points="390.3,372.5 121.2,372.5 121.2,307.9 453.2,307.9 &#9;" style="fill: rgb(104, 225, 253);"/>
	<path class="st1_consulting-9" d="M390.3,374.3H121.2c-1,0-1.8-0.8-1.8-1.8c0,0,0,0,0,0v-64.6c0-1,0.8-1.8,1.8-1.8c0,0,0,0,0,0h332&#10;&#9;&#9;c1,0,1.8,0.8,1.8,1.8c0,0.5-0.2,0.9-0.5,1.3l-62.9,64.6C391.2,374.1,390.8,374.3,390.3,374.3z M123,370.7h266.5l59.4-61H123V370.7z&#10;&#9;&#9;"/>
</g>
<g id="character-1_consulting-9">
	<path class="st4_consulting-9" d="M172,241.5c0,0,10.2,13.4,6.4,18.7c-3.8,5.3-13,1.1-13,1.1"/>
	<path class="st1_consulting-9" d="M172.5,264.8c-2.7-0.1-5.3-0.7-7.8-1.8c-0.9-0.4-1.3-1.5-0.9-2.4s1.5-1.3,2.4-0.9l0,0c0.1,0,7.8,3.5,10.7-0.5&#10;&#9;&#9;c2.1-2.9-2.5-11.4-6.4-16.6c-0.7-0.8-0.6-1.9,0.1-2.6c0.8-0.7,1.9-0.6,2.6,0.1c0.1,0.1,0.1,0.1,0.2,0.2c1.9,2.4,10.8,14.8,6.5,20.9&#10;&#9;&#9;C178.2,263.6,175.4,264.9,172.5,264.8z"/>
	<path class="st4_consulting-9" d="M195.1,343c0-0.1-0.1-0.1-0.1-0.2c-3.3-7.1,4.1-18.2,7.1-24.6c0.6-1.4,1.6-3,3.2-2.9s2.3,1.6,2.8,3&#10;&#9;&#9;c0.5,1.6,0.8,3.3,1.1,5c5.6-1.9,11.4-3.2,17.1-5.4c1.7-0.8,3.5-1.2,5.4-1.2c1.8,0.1,3.8,1.2,4.2,3c0.4,1.5-0.4,3.1-1.4,4.4&#10;&#9;&#9;c-4.6,6.3-14,8.9-16.3,16.9c-1.5,5.2-1.5,10.1-3.8,15.5C214.4,356.6,197.1,346,195.1,343z"/>
	<path class="st1_consulting-9" d="M214.4,358.4c-0.2,0-0.5,0-0.7-0.1c-0.1,0-0.2-0.1-0.4-0.2l-0.6-0.4c-15.4-9.6-18.3-12.4-19.1-13.7l0,0&#10;&#9;&#9;c-0.1-0.1-0.2-0.3-0.2-0.4c-3.1-6.6,1.6-15.6,5.1-22.2c0.8-1.4,1.5-2.8,2-4c1.3-2.7,2.9-4.1,4.9-4s3.6,1.6,4.4,4.3&#10;&#9;&#9;c0.3,1.1,0.6,2.1,0.8,3.2c1.8-0.6,3.6-1.1,5.3-1.6c3.2-0.9,6.5-1.9,9.7-3.1c1.9-0.9,4-1.3,6.1-1.3c2.7,0,5.1,1.8,5.9,4.4&#10;&#9;&#9;c0.5,1.9-0.1,3.9-1.7,6c-2,2.8-4.8,4.8-7.5,6.8c-3.8,2.8-7.3,5.4-8.5,9.5c-0.5,1.9-0.9,3.9-1.2,5.9c-0.5,3.4-1.4,6.7-2.6,9.8&#10;&#9;&#9;C215.8,357.9,215.1,358.4,214.4,358.4z M196.6,342c0.4,0.5,2.6,2.9,16.8,11.9c0.7-2.3,1.2-4.6,1.6-7c0.3-2.1,0.8-4.2,1.3-6.2&#10;&#9;&#9;c1.5-5.4,5.8-8.5,9.8-11.5c2.6-1.9,5-3.7,6.8-6c0.6-0.8,1.3-2,1-2.9c-0.5-1-1.5-1.6-2.6-1.6c-1.6,0.1-3.2,0.4-4.6,1.1&#10;&#9;&#9;c-3.3,1.3-6.7,2.2-10,3.2c-2.4,0.7-4.8,1.4-7.2,2.2c-1,0.3-2-0.2-2.3-1.1c0-0.1-0.1-0.2-0.1-0.3v-0.2c-0.2-1.5-0.6-3.1-1-4.5&#10;&#9;&#9;c-0.4-1.2-0.9-1.7-1.1-1.8c0,0-0.6,0-1.5,1.9c-0.6,1.2-1.3,2.6-2.1,4.1C198.6,329,194.4,337,196.6,342z"/>
	
		<ellipse transform="matrix(0.9965 -8.385176e-02 8.385176e-02 0.9965 -21.345 7.401)" class="st4_consulting-9" cx="77.4" cy="257.8" rx="16.5" ry="14.2"/>
	<path class="st1_consulting-9" d="M77,273.8c-4.1,0-8.1-1.2-11.4-3.6c-3.6-2.5-6-6.5-6.4-10.9l0,0c-0.3-4.4,1.3-8.7,4.5-11.8&#10;&#9;&#9;c6.9-6.7,17.6-7.6,25.6-2.1c6.7,4.5,8.5,13.7,3.9,20.4c-0.6,0.9-1.3,1.7-2,2.4c-3.3,3.3-7.7,5.3-12.4,5.7&#10;&#9;&#9;C78.2,273.8,77.6,273.8,77,273.8z M77.9,245.4c-0.5,0-1,0-1.5,0.1c-3.8,0.3-7.4,1.9-10.1,4.6c-2.4,2.3-3.7,5.6-3.5,9l0,0&#10;&#9;&#9;c0.3,3.3,2.1,6.4,4.9,8.3c6.5,4.4,15.2,3.7,20.8-1.8c4.5-4.1,4.7-11.1,0.6-15.5c-0.6-0.7-1.3-1.2-2-1.7&#10;&#9;&#9;C84.4,246.4,81.2,245.4,77.9,245.4z"/>
	<path class="st4_consulting-9" d="M142.6,191.2c16.1,23,24.6,8.5,27.1,3.5l4.3,51.5c2.2,25.7-15.6,48.7-41,53.1l0.9,10.6&#10;&#9;&#9;c0.4,4.7-3.1,8.8-7.8,9.2s-8.8-3.1-9.2-7.8l0,0l-0.8-9.9c-30.1,1.4-46.9-23.2-48.9-46.2l3.9-46.5&#10;&#9;&#9;C71.2,208.7,92.2,222.4,142.6,191.2z"/>
	<path class="st1_consulting-9" d="M125.4,320.9c-5.3,0-9.8-4.1-10.2-9.4l-0.7-8.2c-13.7,0.2-25.6-4.8-34.7-14.6c-8.3-9.2-13.3-20.9-14.3-33.3&#10;&#9;&#9;c0-0.1,0-0.2,0-0.3l3.9-46.5c0.1-1,0.9-1.7,1.9-1.7c0.3,0,0.6,0.1,0.9,0.3c0.2,0.1,20.9,12.5,69.5-17.5c0.8-0.5,1.9-0.3,2.4,0.5&#10;&#9;&#9;c5.6,8,10.9,12.1,15.2,11.8c3.3-0.2,6.2-3,8.8-8.1c0.5-0.9,1.5-1.3,2.4-0.8c0.6,0.3,0.9,0.8,1,1.5l4.3,51.5&#10;&#9;&#9;c2,25.9-15.4,49.3-40.9,54.7l0.8,8.9c0.5,5.7-3.7,10.6-9.4,11.1C126,320.9,125.7,320.9,125.4,320.9z M116.2,299.6&#10;&#9;&#9;c0.9,0,1.7,0.7,1.8,1.7l0.8,9.9c0.2,3.7,3.4,6.5,7.1,6.2s6.5-3.4,6.2-7.1c0-0.1,0-0.2,0-0.3l-0.9-10.6c-0.1-0.9,0.6-1.8,1.5-1.9&#10;&#9;&#9;c24.4-4.4,41.5-26.5,39.5-51.2l-3.9-46c-2.6,3.3-5.5,5-8.8,5.3c-5.4,0.4-11.3-3.6-17.4-12c-40.7,24.7-62.3,20.5-69.4,17.8&#10;&#9;&#9;l-3.7,43.7C71.1,278.3,87.9,300.9,116.2,299.6L116.2,299.6z"/>
	<path class="st0_consulting-9" d="M144.9,211.8c3.1,0.1,26.5,3.8,28.6,1.3c1.9-2.5,3.1-5.5,3.3-8.6c0.8-8.4-2-16.8-7.7-23&#10;&#9;&#9;c-4.3-4.8-10.7-8.9-17.1-10.1c-2-0.4-18.1,0.9-17.7,1.6c-3.6-6.9-10.8-11.2-18.2-13.4c-28.7-8.9-55.2,5.6-64.1,33.8&#10;&#9;&#9;c-4.2,13.3-4.3,27.6-2.8,41.4c1.6,14.4,5.1,29,13.5,40.7c16.1,22.5,49.6,25.8,70.7,9.7C153.3,270,143.8,222.9,144.9,211.8z"/>
	<path class="st1_consulting-9" d="M102.8,296.9c-2.8,0-5.5-0.2-8.3-0.6c-13.8-2.1-25.6-9.1-33.3-19.9c-7.5-10.4-11.9-23.6-13.8-41.6&#10;&#9;&#9;c-1.8-16.5-0.9-30.3,2.9-42.2c9.3-29.3,37.2-44,66.4-35c8.5,2.6,15,7.2,18.5,13.1c5.2-1.2,17-1.3,17.2-1.2&#10;&#9;&#9;c6.4,1.2,13.1,5.2,18.1,10.7c6.1,6.6,9,15.5,8.1,24.4c-0.3,3.5-1.6,6.8-3.7,9.6c-1.7,2.1-7.3,2.1-24.8-0.1l-3.5-0.4&#10;&#9;&#9;c0,2.5,0.2,6.2,0.5,10.3c1.3,18.8,3.5,50.2-12.7,62.5C125.3,293.3,114.2,297,102.8,296.9z M99.2,158.6c-20.9,0-38.5,13-45.5,35.1&#10;&#9;&#9;c-3.6,11.4-4.5,24.7-2.7,40.7c1.9,17.3,6.1,30,13.2,39.9s18.1,16.5,30.9,18.4c13.1,2.1,26.5-1.2,37.2-9.1&#10;&#9;&#9;c14.6-11.1,12.5-41.3,11.2-59.3c-0.4-5.6-0.7-10-0.4-12.7c0.1-0.9,0.9-1.7,1.9-1.6c0.9,0,2.9,0.3,5.6,0.6&#10;&#9;&#9;c5.3,0.6,19.3,2.3,21.7,1.2c1.6-2.2,2.6-4.8,2.8-7.6c0.8-7.9-1.9-15.7-7.2-21.6c-4.4-4.8-10.6-8.5-16.1-9.6&#10;&#9;&#9;c-1.7-0.3-13.9,0.7-16.2,1.2c-0.1,0.1-0.2,0.1-0.3,0.2c-0.9,0.5-2,0.1-2.4-0.8c0,0,0,0,0,0l0,0c-2.9-5.6-9-10-17.1-12.6&#10;&#9;&#9;C110.3,159.5,104.8,158.7,99.2,158.6z"/>
	<path class="st6_consulting-9" d="M192.6,337.7l-5.6,17c-5.9-24.5-20.6-50.4-35.7-50.4H89.8c-10.4,0-18.9,8.5-18.9,18.9v74.3h136l13.9-51.5&#10;&#9;&#9;L192.6,337.7z"/>
	<path class="st1_consulting-9" d="M206.9,399.3h-136c-1,0-1.8-0.8-1.8-1.8v-74.3c0-11.4,9.3-20.7,20.7-20.7h61.6c15,0,29,22.6,35.9,45.8&#10;&#9;&#9;l3.6-11.2c0.3-0.9,1.3-1.5,2.2-1.2l28.2,8.4c0.9,0.3,1.5,1.3,1.2,2.2L208.6,398C208.4,398.8,207.7,399.3,206.9,399.3z M72.7,395.7&#10;&#9;&#9;h132.8l13-48.4l-24.7-7.3l-5,15.3c-0.3,1-1.3,1.5-2.3,1.2c-0.6-0.2-1.1-0.7-1.2-1.3c-5.8-24.1-20-49-33.9-49H89.8&#10;&#9;&#9;c-9.4,0-17.1,7.6-17.1,17.1L72.7,395.7z"/>
	<line class="st7_consulting-9" x1="157.9" y1="397.5" x2="150.4" y2="354.1"/>
	<path class="st1_consulting-9" d="M157.9,399.3c-0.9,0-1.6-0.6-1.8-1.5l-7.5-43.4c-0.1-1,0.6-1.9,1.6-2c0.9-0.1,1.8,0.5,2,1.4l7.5,43.4&#10;&#9;&#9;c0.2,1-0.5,1.9-1.5,2.1c0,0,0,0,0,0L157.9,399.3z"/>
	<path class="st4_consulting-9" d="M151.2,234.5c-7-1.9-17.8,0.2-16.5,14.7c0.7,7.8,6,14.1,13.2,14.1"/>
	<path class="st1_consulting-9" d="M147.7,265.1c-7.8,0-14-6.6-14.8-15.7c-0.7-7.9,2.1-12,4.6-14.1c4.2-3.5,10.1-3.6,14.2-2.4&#10;&#9;&#9;c1,0.3,1.5,1.3,1.3,2.3c-0.3,1-1.3,1.5-2.3,1.3c-3.2-0.9-7.8-0.9-10.9,1.7c-2.6,2.2-3.8,5.9-3.3,11c0.6,7.2,5.3,12.4,11.2,12.4h0.1&#10;&#9;&#9;c1,0,1.8,0.8,1.8,1.8S148.8,265,147.7,265.1L147.7,265.1z"/>
	<circle class="st1_consulting-9" cx="165.5" cy="235.9" r="2.9"/>
	<path class="st1_consulting-9" d="M170.8,230.4c-0.6,0-1.3-0.2-1.8-0.5c-0.1-0.1-4.9-2.8-8.3-0.4c-1.7,1.1-3.9,0.7-5.1-0.9s-0.7-3.9,0.9-5.1&#10;&#9;&#9;c7.2-5,15.8-0.1,16.1,0.1c1.7,1,2.3,3.2,1.3,5C173.3,229.6,172.1,230.3,170.8,230.4L170.8,230.4z"/>
	<path class="st1_consulting-9" d="M196.4,387.6c-0.8,0-1.5-0.5-1.7-1.3l-9.3-31c-0.3-1,0.2-2,1.2-2.3c0,0,0,0,0,0c1-0.3,2,0.3,2.3,1.2l9.3,31&#10;&#9;&#9;c0.3,1-0.3,2-1.2,2.3C196.7,387.6,196.5,387.6,196.4,387.6z"/>
	<path class="st1_consulting-9" d="M88.9,399.3c-0.9,0-1.7-0.7-1.8-1.6l-4.5-46.6c-0.1-1,0.6-1.9,1.6-2c0,0,0,0,0,0c1-0.1,1.9,0.6,2,1.6l4.5,46.6&#10;&#9;&#9;c0.1,1-0.6,1.9-1.6,2c0,0,0,0,0,0L88.9,399.3z"/>
	<path class="st1_consulting-9" d="M165.5,274L165.5,274c-4-0.2-7.9-0.7-11.7-1.4c-1-0.2-1.6-1.2-1.3-2.2c0.2-0.9,1.1-1.5,2.1-1.4&#10;&#9;&#9;c3.7,0.7,7.4,1.1,11.1,1.3c1,0.1,1.7,1,1.6,2C167.2,273.3,166.4,274,165.5,274L165.5,274z"/>
</g>
<g id="paper_consulting-9">
	<polygon class="st3_consulting-9" points="323.1,318.2 281,353 329.4,353 370.4,317.2 &#9;"/>
	<path class="st1_consulting-9" d="M329.4,354.8H281c-1,0-1.8-0.8-1.8-1.8c0-0.5,0.2-1.1,0.7-1.4l42.2-34.9c0.3-0.3,0.7-0.4,1.1-0.4l47.2-1&#10;&#9;&#9;c0.8,0,1.4,0.5,1.7,1.2c0.3,0.7,0.1,1.5-0.5,2l-41,35.9C330.3,354.7,329.8,354.8,329.4,354.8z M286,351.2h42.6l36.7-32.1l-41.6,0.9&#10;&#9;&#9;L286,351.2z"/>
	<path class="st8_consulting-9" d="M325.5,346.8h-26.9c-1,0.1-1.9-0.7-1.9-1.7c-0.1-1,0.7-1.9,1.7-1.9c0.1,0,0.2,0,0.3,0h26.9&#10;&#9;&#9;c1,0.1,1.8,0.9,1.7,1.9C327.1,346,326.4,346.7,325.5,346.8L325.5,346.8z"/>
	<path class="st8_consulting-9" d="M335.2,341h-26.9c-1,0.1-1.9-0.7-1.9-1.7c-0.1-1,0.7-1.9,1.7-1.9c0.1,0,0.2,0,0.3,0h26.9&#10;&#9;&#9;c1,0.1,1.8,0.9,1.7,1.9C336.8,340.2,336.1,340.9,335.2,341z"/>
	<path class="st8_consulting-9" d="M341.5,334h-26.9c-1-0.1-1.8-0.9-1.7-1.9c0.1-0.9,0.8-1.6,1.7-1.7h26.9c1-0.1,1.9,0.7,1.9,1.7&#10;&#9;&#9;c0.1,1-0.7,1.9-1.7,1.9C341.6,334,341.5,334,341.5,334z"/>
	<path class="st8_consulting-9" d="M349.6,327.3h-26.9c-1,0-1.8-0.8-1.8-1.8s0.8-1.8,1.8-1.8l0,0h26.9c1,0,1.8,0.8,1.8,1.8&#10;&#9;&#9;S350.6,327.3,349.6,327.3z"/>
</g>
<g id="speech-bubble-2_consulting-9">
	<path class="st3_consulting-9" d="M265.7,109.9h-67.1c-10.7,0-19.4,8.7-19.4,19.4v39.6c0,10.7,8.7,19.4,19.4,19.4c0,0,0,0,0,0l0,0l-4.5,17.8&#10;&#9;&#9;l16.3-17.8h55.3c10.7,0,19.4-8.7,19.4-19.4v-39.6C285.1,118.5,276.4,109.9,265.7,109.9z"/>
	<path class="st1_consulting-9" d="M194.1,207.8c-0.3,0-0.6-0.1-0.9-0.2c-0.7-0.4-1.1-1.2-0.9-2l4-15.6c-10.8-1.2-18.9-10.3-18.9-21.1v-39.6&#10;&#9;&#9;c0-11.7,9.5-21.2,21.2-21.2h67.1c11.7,0,21.2,9.5,21.2,21.2v39.6c0,11.7-9.5,21.2-21.2,21.2h-54.5l-15.8,17.2&#10;&#9;&#9;C195.1,207.6,194.7,207.8,194.1,207.8z M198.6,111.7c-9.7,0-17.5,7.9-17.6,17.6v39.6c0,9.7,7.9,17.5,17.6,17.6c1,0,1.8,0.8,1.8,1.8&#10;&#9;&#9;c0,0.2,0,0.3-0.1,0.5l-2.7,10.8l11.4-12.4c0.3-0.4,0.8-0.6,1.3-0.6h55.3c9.7,0,17.5-7.9,17.5-17.6v-39.6c0-9.7-7.9-17.5-17.5-17.6&#10;&#9;&#9;L198.6,111.7z"/>
	<path class="st8_consulting-9" d="M261.9,131.7h-20.6c-1,0.1-1.9-0.7-1.9-1.7s0.7-1.9,1.7-1.9c0.1,0,0.2,0,0.3,0h20.6c1-0.1,1.9,0.7,1.9,1.7&#10;&#9;&#9;c0.1,1-0.7,1.9-1.7,1.9C262,131.7,262,131.7,261.9,131.7z"/>
	<path class="st8_consulting-9" d="M225,131.7h-20.8c-1-0.1-1.8-0.9-1.7-1.9c0.1-0.9,0.8-1.6,1.7-1.7H225c1-0.1,1.9,0.7,1.9,1.7s-0.7,1.9-1.7,1.9&#10;&#9;&#9;C225.2,131.7,225.1,131.7,225,131.7z"/>
	<path class="st8_consulting-9" d="M261.9,150.1h-57.6c-1-0.1-1.8-0.9-1.7-1.9c0.1-0.9,0.8-1.6,1.7-1.7h57.6c1-0.1,1.9,0.7,1.9,1.7&#10;&#9;&#9;c0.1,1-0.7,1.9-1.7,1.9C262,150.1,262,150.1,261.9,150.1z"/>
	<path class="st8_consulting-9" d="M241.8,168.6h-37.5c-1,0-1.8-0.8-1.8-1.8c0-1,0.8-1.8,1.8-1.8h37.5c1,0,1.8,0.8,1.8,1.8&#10;&#9;&#9;C243.6,167.7,242.8,168.6,241.8,168.6z"/>
</g>
<g id="speech-bubble-1_consulting-9">
	<path class="st3_consulting-9" d="M297.2,236.4c0,0-9.4,3.1-16.2,5.3v-8.2c0-10.7-8.7-19.4-19.4-19.4h-42.3c-10.7,0-19.4,8.7-19.4,19.4v21.2&#10;&#9;&#9;c0,10.7,8.7,19.4,19.4,19.4h42.3c10.7,0,19.4-8.7,19.4-19.4c0,0,0,0,0,0v-3.1L297.2,236.4z"/>
	<path class="st1_consulting-9" d="M261.6,275.9h-42.3c-11.7,0-21.2-9.5-21.2-21.2v-21.2c0-11.7,9.5-21.2,21.2-21.2h42.3&#10;&#9;&#9;c11.7,0,21.2,9.5,21.2,21.2v5.7c6.4-2.1,13.8-4.5,13.8-4.5c0.8-0.3,1.7,0.1,2.1,0.8c0.4,0.7,0.3,1.7-0.3,2.2l-15.6,14.7v2.3&#10;&#9;&#9;C282.8,266.4,273.3,275.9,261.6,275.9z M219.3,215.9c-9.7,0-17.5,7.9-17.6,17.6v21.2c0,9.7,7.9,17.5,17.6,17.6h42.3&#10;&#9;&#9;c9.7,0,17.5-7.9,17.6-17.6v-3.1c0-0.5,0.2-1,0.6-1.3l10.2-9.7l-8.5,2.8c-1,0.3-2-0.2-2.3-1.2c-0.1-0.2-0.1-0.4-0.1-0.6v-8.2&#10;&#9;&#9;c0-9.7-7.9-17.5-17.6-17.6L219.3,215.9z"/>
	<path class="st8_consulting-9" d="M261.9,237.2h-41.1c-1,0.1-1.9-0.7-1.9-1.7s0.7-1.9,1.7-1.9c0.1,0,0.2,0,0.3,0h41.1c1-0.1,1.9,0.7,1.9,1.7&#10;&#9;&#9;c0.1,1-0.7,1.9-1.7,1.9C262,237.2,262,237.2,261.9,237.2z"/>
	<path class="st8_consulting-9" d="M245,257h-24.3c-1,0.1-1.9-0.7-1.9-1.7s0.7-1.9,1.7-1.9c0.1,0,0.2,0,0.3,0H245c1-0.1,1.9,0.7,1.9,1.7&#10;&#9;&#9;s-0.7,1.9-1.7,1.9C245.2,257,245.1,257,245,257z"/>
</g>
</svg>