<svg id="_0299_sent_messages_2" xmlns="http://www.w3.org/2000/svg" viewBox="0 0 500 500" data-imageid="message-received-2-76" imageName="Message Received 2" class="illustrations_image" style="width: 137px;"><defs><style>.cls-1_message-received-2-76,.cls-2_message-received-2-76,.cls-3_message-received-2-76{fill:#fff;}.cls-4_message-received-2-76{fill:#f4a28c;}.cls-5_message-received-2-76{fill:#a5a5a5;}.cls-2_message-received-2-76{opacity:.42;}.cls-6_message-received-2-76{fill:#e6e6e6;}.cls-3_message-received-2-76{opacity:.72;}.cls-7_message-received-2-76{fill:#000001;opacity:.09;}.cls-8_message-received-2-76{fill:#24285b;}.cls-9_message-received-2-76{fill:#ffd200;}.cls-10_message-received-2-76{fill:#68e1fd;}</style></defs><g id="paper_plane_message-received-2-76"><path class="cls-6_message-received-2-76" d="m233.63,189.68h-.1c-1.92,0-3.81-.12-5.6-.35-1-.13-1.71-1.05-1.58-2.05.13-1,1.05-1.68,2.05-1.58,1.64.21,3.36.32,5.13.32,1.01,0,1.88.82,1.88,1.83s-.77,1.83-1.78,1.83Zm17.98-2.93c-.79,0-1.52-.51-1.75-1.3-.29-.97.26-1.99,1.23-2.27,1.67-.5,3.38-1.06,5.11-1.69.95-.35,2,.15,2.34,1.1.34.95-.15,2-1.1,2.34-1.79.65-3.58,1.24-5.31,1.75-.17.05-.35.08-.52.08Zm-39.17-5.41c-.55,0-1.1-.25-1.46-.72-1.1-1.45-2.11-3.14-2.99-5.01-.43-.91-.04-2,.87-2.43.91-.44,2-.04,2.43.87.77,1.64,1.64,3.1,2.59,4.35.61.8.45,1.95-.35,2.56-.33.25-.72.37-1.1.37Zm61.08-3.77c-.66,0-1.29-.36-1.62-.98-.47-.89-.13-2,.77-2.47,1.63-.85,3.22-1.73,4.77-2.61.88-.5,1.99-.19,2.49.69.5.88.19,1.99-.69,2.49-1.58.9-3.21,1.79-4.87,2.66-.27.14-.56.21-.85.21Zm20.31-12.38c-.58,0-1.15-.27-1.5-.79-.57-.83-.37-1.97.46-2.54,1.63-1.13,3.12-2.19,4.44-3.15.82-.59,1.96-.41,2.55.4.59.82.41,1.96-.4,2.55-1.35.98-2.86,2.06-4.52,3.2-.32.22-.68.32-1.04.32Zm-88.66-6.18c-.91,0-1.69-.67-1.81-1.6-.23-1.8-.42-3.65-.58-5.53-.09-1,.66-1.89,1.66-1.98,1-.1,1.89.66,1.98,1.66.16,1.84.35,3.64.57,5.39.13,1-.58,1.92-1.58,2.04-.08,0-.16.01-.23.01Zm108.93-5.88c-.69,0-1.35-.39-1.66-1.06-.42-.92-.02-2,.9-2.42,1.61-.74,3.21-1.55,4.75-2.41.89-.49,2-.17,2.49.71s.17,2-.71,2.49c-1.62.9-3.3,1.76-5,2.54-.25.11-.51.17-.76.17Zm99.7-2.37c-.93,0-1.73-.71-1.82-1.66-.09-1,.65-1.9,1.65-1.99,1.78-.16,3.56-.41,5.27-.72.99-.19,1.95.48,2.13,1.47.18.99-.47,1.95-1.47,2.13-1.82.33-3.7.59-5.59.77-.06,0-.11,0-.17,0Zm-18.23-.62c-.09,0-.18,0-.28-.02-3.41-.52-5.49-1.06-5.58-1.09-.98-.26-1.56-1.26-1.3-2.23.26-.97,1.26-1.56,2.23-1.3.02,0,2,.52,5.2,1.01,1,.15,1.68,1.08,1.53,2.08-.14.9-.92,1.55-1.8,1.55Zm40.6-6.66c-.6,0-1.18-.29-1.53-.83-.55-.84-.32-1.98.53-2.53,1.46-.95,2.85-2.02,4.15-3.16.76-.67,1.91-.6,2.58.16.67.76.59,1.91-.16,2.58-1.42,1.26-2.96,2.43-4.56,3.48-.31.2-.66.3-1,.3Zm-102.68-3.73c-.47,0-.94-.18-1.3-.54-.71-.72-.71-1.87,0-2.58,1.24-1.24,2.46-2.55,3.61-3.9.65-.77,1.81-.86,2.58-.21.77.65.86,1.81.21,2.58-1.22,1.43-2.5,2.82-3.81,4.13-.36.36-.82.53-1.29.53Zm-129.9-4.49c-.98,0-1.79-.77-1.82-1.76l-.21-5.48c-.04-1.01.75-1.86,1.75-1.9,1-.05,1.86.75,1.9,1.75l.21,5.49c.04,1.01-.75,1.86-1.76,1.89-.02,0-.05,0-.07,0Zm247.37-9.9c-.24,0-.48-.05-.71-.14-.93-.39-1.36-1.47-.97-2.4.66-1.57,1.27-3.24,1.79-4.97.29-.96,1.31-1.51,2.28-1.22.97.29,1.51,1.32,1.22,2.28-.56,1.85-1.21,3.64-1.92,5.33-.29.7-.97,1.12-1.68,1.12Zm-103.81-4.88c-.27,0-.55-.06-.81-.19-.9-.45-1.27-1.55-.82-2.45.77-1.56,1.53-3.2,2.25-4.88.4-.93,1.48-1.36,2.4-.96.93.4,1.36,1.47.96,2.4-.75,1.75-1.54,3.45-2.34,5.07-.32.64-.97,1.01-1.64,1.01Zm-144.89-8.99c-.93,0-1.72-.7-1.82-1.65-.18-1.82-.39-3.62-.64-5.38-.14-1,.56-1.92,1.56-2.06,1-.15,1.92.56,2.06,1.56.25,1.81.47,3.65.65,5.52.1,1-.63,1.9-1.64,2-.06,0-.12,0-.18,0Zm253.08-9.31c-.99,0-1.8-.79-1.83-1.79-.04-1.77-.17-3.54-.38-5.28-.12-1,.59-1.91,1.59-2.04,1.01-.14,1.92.59,2.04,1.59.23,1.86.37,3.76.41,5.65.02,1.01-.78,1.85-1.79,1.87h-.04Zm-99.98-3.97c-.16,0-.32-.02-.49-.07-.97-.27-1.54-1.28-1.27-2.25.49-1.76.95-3.52,1.38-5.27.24-.98,1.24-1.57,2.22-1.33.98.24,1.57,1.24,1.33,2.22-.44,1.78-.91,3.56-1.4,5.35-.22.81-.96,1.34-1.76,1.34Zm-158.2-9.86c-.71,0-1.39-.42-1.68-1.12-.71-1.67-1.5-3.23-2.35-4.64-.52-.86-.25-1.99.62-2.51.86-.52,1.99-.25,2.51.62.94,1.56,1.82,3.28,2.59,5.11.39.93-.04,2-.97,2.39-.23.1-.47.14-.71.14Zm252.6-9.06c-.68,0-1.33-.38-1.65-1.03-.76-1.58-1.62-3.15-2.53-4.68-.52-.86-.24-1.99.63-2.51.87-.52,1.99-.24,2.51.63.97,1.62,1.87,3.29,2.69,4.97.44.91.06,2-.85,2.44-.26.12-.53.18-.79.18Zm-88.87-4.21c-.14,0-.28-.02-.42-.05-.98-.23-1.59-1.21-1.36-2.2.43-1.84.86-3.63,1.31-5.37.25-.98,1.25-1.57,2.22-1.32.98.25,1.57,1.25,1.32,2.22-.44,1.72-.87,3.49-1.29,5.3-.2.84-.95,1.41-1.78,1.41Zm-179.99-2.8c-.19,0-.38-.03-.57-.09-.58-.19-1.18-.36-1.8-.51-1.14-.28-2.26-.55-3.36-.81-.98-.23-1.59-1.22-1.36-2.2.23-.98,1.23-1.59,2.2-1.36,1.12.26,2.25.54,3.4.82.7.17,1.39.37,2.05.59.96.31,1.49,1.34,1.17,2.3-.25.77-.97,1.26-1.74,1.26Zm-23.21-4.99c-.1,0-.2,0-.3-.02-1.87-.31-3.66-.58-5.37-.82-1-.14-1.7-1.06-1.56-2.06.14-1,1.06-1.7,2.06-1.56,1.74.24,3.56.52,5.47.84,1,.17,1.67,1.11,1.5,2.1-.15.89-.92,1.53-1.8,1.53Zm-29.11-2.24c-.97,0-1.77-.76-1.82-1.73-.05-1.01.72-1.87,1.73-1.92,1.32-.07,2.8-.13,4.52-.1.35,0,.71,0,1.08,0,1.01.01,1.82.84,1.81,1.85-.01,1-.83,1.81-1.83,1.81h-.02c-.43,0-.84,0-1.25,0-1.54,0-2.91.04-4.12.1-.03,0-.06,0-.09,0Zm307.09-4.73c-.45,0-.9-.16-1.25-.5-1.29-1.21-2.64-2.4-4.03-3.51-.79-.64-.91-1.78-.27-2.57.64-.79,1.79-.91,2.57-.27,1.46,1.18,2.88,2.42,4.24,3.7.74.69.77,1.85.08,2.58-.36.38-.84.57-1.33.57Zm-67.3-7.73c-.3,0-.61-.07-.9-.24-.88-.5-1.19-1.61-.69-2.49,1.02-1.8,2.13-3.41,3.32-4.78.66-.76,1.81-.85,2.58-.19.76.66.85,1.81.19,2.58-1.02,1.18-2,2.59-2.9,4.18-.34.6-.96.93-1.59.93Zm47.68-5.5c-.26,0-.51-.05-.76-.17-1.63-.75-3.29-1.44-4.93-2.04-.95-.35-1.43-1.4-1.09-2.35.35-.95,1.4-1.44,2.35-1.09,1.73.64,3.49,1.36,5.2,2.15.92.42,1.32,1.51.9,2.42-.31.67-.97,1.06-1.66,1.06Zm-28.37-5.84c-.96,0-1.76-.75-1.82-1.72-.06-1.01.71-1.87,1.71-1.93,1.87-.11,3.77-.12,5.68-.03,1.01.05,1.78.91,1.73,1.92-.05,1.01-.97,1.79-1.92,1.73-1.78-.09-3.54-.09-5.28.02-.04,0-.07,0-.11,0Z"/><polygon class="cls-9_message-received-2-76" points="160.01 34.88 42.82 45.94 146.01 106.76 160.01 34.88"/><polygon class="cls-9_message-received-2-76" points="156.02 55.36 167.89 85.97 150.41 84.19 156.02 55.36"/><polygon class="cls-7_message-received-2-76" points="156.02 55.36 167.89 85.97 150.41 84.19 156.02 55.36"/><polygon class="cls-7_message-received-2-76" points="42.82 45.94 156.02 55.36 151.39 79.15 42.82 45.94"/></g><g id="send_mail_message-received-2-76"><rect class="cls-5_message-received-2-76" x="222.42" y="101.22" width="136.73" height="206.31" transform="translate(46.56 -53.84) rotate(11.49)"/><rect class="cls-6_message-received-2-76" x="225.05" y="88.25" width="136.73" height="206.31" transform="translate(44.02 -54.63) rotate(11.49)"/><rect class="cls-1_message-received-2-76" x="237.94" y="103.99" width="116.22" height="149.02" transform="translate(41.51 -55.41) rotate(11.49)"/><rect class="cls-8_message-received-2-76" x="260.22" y="192.1" width="61.22" height="25.43" transform="translate(46.64 -53.84) rotate(11.49)"/><polygon class="cls-10_message-received-2-76 targetColor" points="308.14 462.2 308.14 360.97 409.37 351.93 427.45 462.2 308.14 462.2" style="fill: rgb(104, 225, 253);"/><path class="cls-4_message-received-2-76" d="m289.33,309.35l25.13,35.35v15.7l88.55-7.91-4.49-43.15s10.85-51.42-2.71-84.86c-7.32-18.06-8.41-36.04-7.85-48.75.67-15.31-21.32-18.82-25.27-4.01-1.67,6.28-2.83,19.02-2.7,31.85.05,5.41-1.1,10.76-3.33,15.7-5.4,11.95-14.44,35.4-9.02,48.53l-10.43,51.28-47.89-9.74Z"/><circle class="cls-2_message-received-2-76" cx="278.15" cy="271.36" r="10.44"/><polygon class="cls-7_message-received-2-76" points="337.22 319.09 346.17 357.57 314.46 360.4 314.46 344.7 289.33 309.35 337.22 319.09"/><path class="cls-4_message-received-2-76" d="m187.43,365.94l9.65-22.14s16.87-8.44,36.76-16.87c19.88-8.43,29.14-22.15,26.51-32.54-2.62-10.39-22.29-23.02-22.29-23.02,0,0,38.61-55.76,40.09-66.99,1.48-11.23-8.16-15.44-20.81-7.61-12.65,7.83-37.36,37.36-37.36,37.36,0,0-42.18-19.88-58.45-6.03-16.27,13.86-21.46,58.38-44.54,96.76l70.44,41.07Z"/><polygon class="cls-10_message-received-2-76 targetColor" points="110.44 321.05 197.64 359.22 165.69 465.12 42.82 462.2 110.44 321.05" style="fill: rgb(104, 225, 253);"/><rect class="cls-9_message-received-2-76" x="271.91" y="135.77" width="57.86" height="39.54" transform="translate(36.15 -55.73) rotate(11.26)"/><rect class="cls-3_message-received-2-76" x="271.91" y="135.77" width="57.86" height="39.54" transform="translate(36.15 -55.73) rotate(11.26)"/><polygon class="cls-9_message-received-2-76" points="276.33 130.5 299.28 163.4 333.08 141.8 276.33 130.5"/></g></svg>